<?xml version="1.0" encoding="UTF-8"?>
<svg id="Ebene_1" data-name="Ebene 1" xmlns="http://www.w3.org/2000/svg" viewBox="0 0 77.66 44.78">
  <defs>
    <style>
      .cls-1 {
        fill: #f28443;
      }
    </style>
  </defs>
  <path class="cls-1" d="m50.38,37.94h-26.82c-.69,0-1.25-.56-1.25-1.25s.56-1.25,1.25-1.25h26.82c.69,0,1.25.56,1.25,1.25s-.56,1.25-1.25,1.25Z"/>
  <path class="cls-1" d="m72.48,37.94h-6.85c-.69,0-1.25-.56-1.25-1.25s.56-1.25,1.25-1.25h6.85c1.48,0,2.68-1.4,2.68-3.11v-7.87c0-2.54-1.8-4.61-4.02-4.61h-11.03c-.61,0-1.13-.44-1.23-1.04l-1.32-7.85c-2.1-7.43-6.48-8.45-10.9-8.45h-23.94c-5.66,0-12.41,2.79-12.41,16.1,0,.69-.56,1.25-1.25,1.25-3.62,0-6.56,3.33-6.56,7.43v4.92c0,1.79,1.25,3.24,2.79,3.24h3.03c.69,0,1.25.56,1.25,1.25s-.56,1.25-1.25,1.25h-3.03C2.37,37.94,0,35.37,0,32.2v-4.92C0,22.26,3.41,18.1,7.83,17.44,8.3,1.73,18.34,0,22.72,0h23.94c4.86,0,10.76,1.18,13.32,10.34.01.04.02.09.03.13l1.16,6.88h9.97c3.6,0,6.52,3.19,6.52,7.11v7.87c0,3.09-2.32,5.61-5.18,5.61Z"/>
  <path class="cls-1" d="m15.94,44.78c-4.57,0-8.38-3.42-8.86-7.96-.03-.31-.06-.64-.06-.96,0-4.92,4-8.93,8.92-8.93s8.92,4.01,8.92,8.93c0,.33-.02.65-.06.97-.48,4.53-4.29,7.95-8.86,7.95Zm0-15.35c-3.54,0-6.42,2.88-6.42,6.43,0,.23.02.47.04.7.35,3.26,3.09,5.72,6.38,5.72s6.03-2.46,6.38-5.72c.03-.23.04-.46.04-.7,0-3.55-2.88-6.43-6.42-6.43Z"/>
  <path class="cls-1" d="m58,44.78c-4.57,0-8.38-3.42-8.86-7.96-.03-.31-.06-.64-.06-.96,0-4.92,4-8.93,8.92-8.93s8.93,4.01,8.93,8.93c0,.33-.02.65-.06.97-.48,4.53-4.3,7.95-8.87,7.95Zm0-15.35c-3.54,0-6.42,2.88-6.42,6.43,0,.23.02.47.04.69.35,3.27,3.09,5.73,6.38,5.73s6.04-2.46,6.39-5.72c.03-.23.04-.46.04-.7,0-3.55-2.88-6.43-6.43-6.43Z"/>
  <path class="cls-1" d="m52.98,18.93H16.35c-.69,0-1.25-.56-1.25-1.25v-3.08c0-4.31,3.5-7.81,7.81-7.81h23.22c4.46,0,8.1,3.63,8.1,8.1v2.8c0,.69-.56,1.25-1.25,1.25Zm-35.38-2.5h34.13v-1.55c0-3.09-2.51-5.6-5.6-5.6h-23.22c-2.93,0-5.31,2.38-5.31,5.31v1.83Z"/>
  <path class="cls-1" d="m35.01,8.44h0c.69,0,1.25.56,1.25,1.25v7.32c0,.69-.56,1.25-1.25,1.25h0c-.69,0-1.25-.56-1.25-1.25v-7.32c0-.69.56-1.25,1.25-1.25Z"/>
</svg>