<?xml version="1.0" encoding="UTF-8"?>
<svg id="Ebene_1" data-name="Ebene 1" xmlns="http://www.w3.org/2000/svg" viewBox="0 0 79.53 49.23">
  <defs>
    <style>
      .cls-1 {
        fill: #14b3d9;
      }
    </style>
  </defs>
  <g>
    <path class="cls-1" d="m62.74,48.52c-4.04,0-7.33-3.29-7.33-7.33s3.29-7.33,7.33-7.33,7.33,3.29,7.33,7.33-3.29,7.33-7.33,7.33Zm0-12.17c-2.67,0-4.83,2.17-4.83,4.83s2.17,4.83,4.83,4.83,4.83-2.17,4.83-4.83-2.17-4.83-4.83-4.83Z"/>
    <path class="cls-1" d="m16.94,48.52c-4.04,0-7.33-3.29-7.33-7.33s3.29-7.33,7.33-7.33,7.33,3.29,7.33,7.33-3.29,7.33-7.33,7.33Zm0-12.17c-2.67,0-4.83,2.17-4.83,4.83s2.17,4.83,4.83,4.83,4.83-2.17,4.83-4.83-2.17-4.83-4.83-4.83Z"/>
    <path class="cls-1" d="m72.65,42.35c-.69,0-1.25-.56-1.25-1.25s.56-1.25,1.25-1.25h2.98c.77,0,1.4-.63,1.41-1.41V3.91c0-.77-.63-1.4-1.41-1.41H3.91c-.77,0-1.4.63-1.41,1.41v34.53c0,.77.63,1.41,1.41,1.41h2.71c.69,0,1.25.56,1.25,1.25s-.56,1.25-1.25,1.25h-2.72C1.76,42.34,0,40.59,0,38.44V3.91C0,1.76,1.76,0,3.9,0h71.73c2.15,0,3.9,1.76,3.91,3.9v34.54c0,2.15-1.76,3.9-3.9,3.91h-2.98Z"/>
    <path class="cls-1" d="m51.94,42.55h0l-24.77-.11c-.69,0-1.25-.56-1.24-1.26,0-.69.56-1.24,1.25-1.24h0l24.77.11c.69,0,1.25.56,1.24,1.26,0,.69-.56,1.24-1.25,1.24Z"/>
    <path class="cls-1" d="m23.97,16.17c-.69,0-1.25-.56-1.25-1.25v-5.32c0-.69.56-1.25,1.25-1.25s1.25.56,1.25,1.25v5.32c0,.69-.56,1.25-1.25,1.25Z"/>
    <path class="cls-1" d="m11.55,31.28c-.69,0-1.25-.56-1.25-1.25V9.59c0-.69.56-1.25,1.25-1.25s1.25.56,1.25,1.25v20.43c0,.69-.56,1.25-1.25,1.25Z"/>
    <path class="cls-1" d="m36.81,20.69H12.56c-.69,0-1.25-.56-1.25-1.25s.56-1.25,1.25-1.25h23v-7.87H1.78c-.69,0-1.25-.56-1.25-1.25s.56-1.25,1.25-1.25h35.04c.69,0,1.25.56,1.25,1.25v10.37c0,.69-.56,1.25-1.25,1.25Z"/>
  </g>
  <g id="Gruppe_503" data-name="Gruppe 503">
    <g id="Gruppe_65" data-name="Gruppe 65">
      <path class="cls-1" d="m59.99,16.39c-.69,0-1.25-.56-1.25-1.25v-5.93c0-.69.56-1.25,1.25-1.25s1.25.56,1.25,1.25v5.93c0,.69-.56,1.25-1.25,1.25Z"/>
      <path class="cls-1" d="m72.84,20.84h-26.06c-.69,0-1.25-.56-1.25-1.25v-10.52c0-.69.56-1.25,1.25-1.25h26.06c.69,0,1.25.56,1.25,1.25v10.52c0,.69-.56,1.25-1.25,1.25Zm-24.81-2.5h23.56v-8.02h-23.56v8.02Z"/>
    </g>
  </g>
</svg>