<?xml version="1.0" encoding="UTF-8"?>
<svg id="Ebene_1" data-name="Ebene 1" xmlns="http://www.w3.org/2000/svg" viewBox="0 0 80.2 48.22">
  <defs>
    <style>
      .cls-1 {
        fill: #6060d6;
      }
    </style>
  </defs>
  <path class="cls-1" d="m56.69,33.21c-1.38,0-2.73-.52-3.78-1.53l-4.87-4.63h0c-1.3-1.23-1.42-3.26-.27-4.61,1.42-1.67,2.99-4.96,4.5-8.15.98-2.07,2-4.2,2.98-5.9,2.26-3.9,7.97-7.53,13.01-8.26,3.25-.47,6,.25,7.95,2.1,6.06,5.72,4.62,9.58-.39,17.66-3.88,6.24-12.24,10.72-16.88,12.83-.72.33-1.49.49-2.24.49Zm-6.93-7.97l4.87,4.63c.89.85,2.17,1.07,3.27.57,4.39-1.99,12.27-6.18,15.79-11.87,5.14-8.29,5.25-10.32.8-14.53-1.74-1.64-4.16-1.69-5.87-1.44-4.66.68-9.56,4.19-11.21,7.04-.93,1.61-1.93,3.7-2.89,5.72-1.58,3.33-3.22,6.77-4.85,8.69-.29.33-.25.86.09,1.18h0Z"/>
  <path class="cls-1" d="m39.63,45.15c-2.46,0-4.55-.81-5.82-2.39-1.46-1.83-2.04-3.77-1.72-5.77.47-2.91,2.85-5.8,7.1-8.57,1.78-1.17,4.14-.99,5.74.44,0,0,0,0,0,0l5.51,4.93c1.49,1.33,1.79,3.59.7,5.27-.92,1.42-2.6,3.38-5.35,4.64-2.15.98-4.28,1.46-6.18,1.46Zm2.14-15c-.42,0-.84.12-1.21.36-3.58,2.34-5.65,4.72-6,6.87-.21,1.3.18,2.55,1.2,3.82,1.26,1.57,4.75,2.15,9,.22,2.2-1,3.55-2.58,4.29-3.72.42-.65.31-1.53-.27-2.05l-5.51-4.93c-.42-.38-.96-.57-1.5-.57Z"/>
  <g>
    <path class="cls-1" d="m17.3,32.95c-.77,0-1.5-.28-2.07-.8l-4.54-4.1c-1.54-1.39-2.13-3.57-1.51-5.56,1.42-4.54,4.57-12.79,9.73-17.02C25.63-.06,28.94-1.79,34.66,3.41c1.84,1.68,2.75,4.21,2.62,7.34-.2,4.76-2.86,10.42-6.07,12.89-1.41,1.08-3.2,2.24-4.93,3.35-2.65,1.71-5.4,3.48-6.72,4.95-.54.6-1.29.96-2.1,1-.05,0-.11,0-.16,0ZM28.42,2.79c-1.92,0-4.1,1.46-7.94,4.6-4.83,3.96-7.85,12.39-8.92,15.83-.33,1.06-.02,2.22.8,2.96l4.54,4.1h0c.12.11.27.17.43.16.1,0,.25-.04.37-.18,1.55-1.72,4.43-3.58,7.23-5.38,1.69-1.09,3.43-2.21,4.76-3.23,2.31-1.77,4.91-6.49,5.1-11.01.07-1.65-.19-3.92-1.8-5.39-1.77-1.61-3.08-2.47-4.55-2.47Z"/>
    <path class="cls-1" d="m6.58,48.22c-1.28,0-2.56-.43-3.83-1.3-2.71-1.84-3.51-6.32-1.99-11.15.85-2.7,2.43-4.47,3.6-5.47,1.45-1.23,3.57-1.17,4.95.16l4.86,4.68c1.42,1.37,1.81,3.57.95,5.36-2.08,4.3-4.45,6.83-7.05,7.53-.5.13-1,.2-1.5.2Zm.17-16.3c-.27,0-.54.09-.76.29-.93.79-2.17,2.18-2.84,4.32-1.3,4.14-.47,7.33,1.01,8.34,1.15.79,2.23,1.03,3.28.75,1.84-.49,3.72-2.64,5.44-6.2.4-.83.22-1.84-.43-2.47h0l-4.87-4.68c-.24-.23-.53-.34-.83-.34Z"/>
  </g>
</svg>