<?xml version="1.0" encoding="utf-8"?>
<!-- Generator: Adobe Illustrator 27.1.1, SVG Export Plug-In . SVG Version: 6.00 Build 0)  -->
<svg version="1.1" id="Ebene_1" xmlns="http://www.w3.org/2000/svg" xmlns:xlink="http://www.w3.org/1999/xlink" x="0px" y="0px"
	 viewBox="0 0 78.4 45.2" style="enable-background:new 0 0 78.4 45.2;" xml:space="preserve">
<style type="text/css">
	.st0{fill:#34C17B;}
</style>
<path class="st0" d="M14.3,45.2C6.5,45.2,0.1,38.9,0,31c-0.1-7.9,6.2-14.4,14.1-14.5c3.8-0.1,7.4,1.4,10.2,4
	c2.7,2.7,4.3,6.2,4.3,10.1s-1.4,7.4-4.1,10.2c-2.7,2.7-6.2,4.3-10.1,4.3C14.5,45.2,14.4,45.2,14.3,45.2z M14.3,19
	c-0.1,0-0.1,0-0.2,0C7.6,19.1,2.4,24.5,2.5,31c0.1,6.5,5.4,11.7,11.8,11.7c0.1,0,0.1,0,0.2,0c3.2,0,6.1-1.3,8.3-3.6
	c2.2-2.3,3.4-5.2,3.3-8.4c0-3.2-1.3-6.1-3.6-8.3C20.3,20.2,17.4,19,14.3,19L14.3,19z"/>
<path class="st0" d="M64,44.5c-3.8,0-7.3-1.4-10-4c-2.8-2.7-4.3-6.2-4.3-10.1s1.4-7.5,4-10.2c2.7-2.7,6.2-4.3,10.1-4.3
	c3.8-0.1,7.4,1.4,10.2,4c2.7,2.7,4.3,6.2,4.3,10.1l0,0c0.1,3.8-1.4,7.4-4.1,10.2c-2.7,2.7-6.2,4.3-10.1,4.3
	C64.2,44.5,64.1,44.5,64,44.5z M64.1,18.3c-0.1,0-0.1,0-0.2,0c-3.2,0-6.1,1.3-8.3,3.6c-2.2,2.3-3.4,5.2-3.3,8.4s1.3,6.1,3.6,8.3
	c2.3,2.2,5.2,3.4,8.4,3.3c3.2,0,6.1-1.3,8.3-3.6c2.2-2.3,3.4-5.2,3.3-8.4l0,0c0-3.2-1.3-6.1-3.6-8.3C70.1,19.5,67.1,18.3,64.1,18.3z
	"/>
<path class="st0" d="M15,31.7c-0.4,0-0.9-0.2-1.1-0.6c-0.2-0.4-0.2-0.9,0-1.3L26.7,9c0.2-0.4,0.6-0.6,1-0.6l28.1-0.8
	c0.5,0,1,0.3,1.2,0.7c0.2,0.4,0.2,1-0.2,1.4L39.1,30.8c-0.2,0.3-0.6,0.4-0.9,0.5L15,31.7L15,31.7L15,31.7z M28.5,10.9L17.2,29.1
	l20.3-0.4l15.6-18.5L28.5,10.9L28.5,10.9z"/>
<path class="st0" d="M65.1,31c-0.5,0-0.9-0.3-1.2-0.8L51.6,2c-0.2-0.4-0.1-0.8,0.1-1.2s0.6-0.6,1-0.6L59.8,0c0,0,0.1,0,0.1,0
	c0.2,0,2.3,0.2,3.4,1.9c0.8,1.2,0.9,2.7,0.4,4.4c-0.2,0.7-0.9,1-1.6,0.8c-0.7-0.2-1-0.9-0.8-1.6c0.3-1,0.3-1.8,0-2.3
	c-0.4-0.6-1.2-0.8-1.5-0.8l-5.1,0.2l11.6,26.5c0.3,0.6,0,1.4-0.6,1.6C65.4,30.9,65.2,31,65.1,31L65.1,31z"/>
<path class="st0" d="M40.8,37.1c-0.5,0-0.9-0.3-1.1-0.7l-16-32.8c-0.3-0.6,0-1.4,0.6-1.7c0.6-0.3,1.4,0,1.7,0.6l16,32.8
	c0.3,0.6,0,1.4-0.6,1.7C41.2,37,41,37.1,40.8,37.1z"/>
<g>
	<path class="st0" d="M20.5,1.6l11.7-0.2c0.9,0,1.7,0.7,1.7,1.7l0,0c0,0.9-0.7,1.7-1.7,1.7L20.5,5c-0.9,0-1.7-0.7-1.7-1.7l0,0
		C18.8,2.4,19.6,1.6,20.5,1.6z"/>
	<path class="st0" d="M20.5,5.5c-0.6,0-1.1-0.2-1.5-0.6c-0.4-0.4-0.6-1-0.7-1.5c0-1.2,1-2.2,2.1-2.2L32.1,1h0c1.2,0,2.2,1,2.2,2.2
		c0,0.6-0.2,1.1-0.6,1.5s-1,0.7-1.5,0.7L20.5,5.5L20.5,5.5L20.5,5.5z M32.2,2L32.2,2L20.5,2.1c-0.6,0-1.2,0.5-1.2,1.2
		c0,0.3,0.1,0.6,0.4,0.8c0.2,0.2,0.5,0.3,0.8,0.3l11.7-0.2c0.3,0,0.6-0.1,0.8-0.4s0.3-0.5,0.3-0.8C33.3,2.5,32.8,2,32.2,2z"/>
</g>
<path class="st0" d="M39.8,37.5c-0.5,0-1-0.2-1.4-0.5c-0.4-0.4-0.6-0.8-0.6-1.4c0-1.1,0.8-2,1.9-2l1.6,0h0c1.1,0,1.9,0.9,2,1.9
	c0,0.5-0.2,1-0.5,1.4s-0.8,0.6-1.4,0.6L39.8,37.5L39.8,37.5L39.8,37.5z"/>
</svg>
